<?xml version="1.0" encoding="utf-8"?>
<!-- Generator: Adobe Illustrator 20.1.0, SVG Export Plug-In . SVG Version: 6.00 Build 0)  -->
<svg version="1.1" id="Слой_1" xmlns="http://www.w3.org/2000/svg" xmlns:xlink="http://www.w3.org/1999/xlink" x="0px" y="0px"
	 viewBox="0 0 120 105.4" style="enable-background:new 0 0 120 105.4;" xml:space="preserve">
<style type="text/css">
	.st0{fill:url(#SVGID_1_);}
	.st1{fill:url(#SVGID_2_);}
	.st2{fill:url(#SVGID_3_);}
	.st3{fill:url(#SVGID_4_);}
	.st4{fill:url(#SVGID_5_);}
	.st5{fill:url(#SVGID_6_);}
	.st6{fill:#FFFFFF;}
	.st7{fill:url(#SVGID_7_);}
	.st8{fill:url(#SVGID_8_);}
	.st9{fill:url(#SVGID_9_);}
	.st10{fill:url(#SVGID_10_);}
	.st11{fill:url(#SVGID_11_);}
	.st12{fill:url(#SVGID_12_);}
	.st13{fill:url(#SVGID_13_);}
	.st14{fill:url(#SVGID_14_);}
	.st15{fill:url(#SVGID_15_);}
	.st16{fill:#848484;}
</style>
<g>
	<g>
		
			<radialGradient id="SVGID_1_" cx="-342.2167" cy="389.8135" r="2.586546e-02" gradientTransform="matrix(1227.542 -1453.1774 -1405.7009 -1269.0021 968082.25 -2574.5515)" gradientUnits="userSpaceOnUse">
			<stop  offset="0" style="stop-color:#22A249"/>
			<stop  offset="0.2182" style="stop-color:#A5D066"/>
			<stop  offset="0.6848" style="stop-color:#69BD45"/>
			<stop  offset="1" style="stop-color:#007332"/>
		</radialGradient>
		<path class="st0" d="M49.8,8.4c-11,0-22.1,10.2-22.1,24c0,6.7,1.6,12.9,5,18c0.7,0.6,1.8,1.2,2.5,1.7c-2-3.8-3.1-8.1-3.1-12.7
			c0-14.6,9.6-26.4,25.5-26.5c3.3,0,6.4,0.7,9.3,1.9C62.4,10.8,56.4,8.4,49.8,8.4z"/>
		
			<radialGradient id="SVGID_2_" cx="-341.5559" cy="391.5714" r="2.613986e-02" gradientTransform="matrix(70.0539 -2039.5396 -1972.9054 -72.42 796515.875 -668195.125)" gradientUnits="userSpaceOnUse">
			<stop  offset="0" style="stop-color:#A3B156"/>
			<stop  offset="0.2182" style="stop-color:#9ACA3C"/>
			<stop  offset="0.6242" style="stop-color:#83A639"/>
			<stop  offset="1" style="stop-color:#0C6F30"/>
		</radialGradient>
		<path class="st1" d="M46.5,55.9c-10-10.4-6.8-31.9-0.3-37.7c4.2-4.4,9.4-5.2,9.7-5.3c-8.3,0.1-13.4,3.3-18.1,8.2
			c-6.6,6.8-9.3,16.2-7.6,24.4c3.6,8.4,9.8,15.2,21.4,18.2c2.5,0.7,3.3-0.5,5.9-1.1C53.4,61.4,49.7,59.1,46.5,55.9z"/>
		
			<radialGradient id="SVGID_3_" cx="-339.5205" cy="392.7397" r="2.579885e-02" gradientTransform="matrix(-1425.5709 -1299.7438 -1257.28 1473.7189 9852.8223 -1020023.375)" gradientUnits="userSpaceOnUse">
			<stop  offset="0" style="stop-color:#FFFFFF"/>
			<stop  offset="0.2061" style="stop-color:#C8CB59"/>
			<stop  offset="0.5455" style="stop-color:#B4D133"/>
			<stop  offset="1" style="stop-color:#4A6B18"/>
		</radialGradient>
		<path class="st2" d="M67.4,57.7c-14.2,0-25.6-11.8-25.6-26.4c0-3.4,0.7-6.7,1.8-9.6c-3.8,4.7-6.1,10.9-6.1,17.8
			c0,10.9,5.8,20.2,14.1,24.2c2.3,0.6,4.8,0.9,7.3,0.9c6.4,0,12.3-2,17.2-5.4c1.4-1.4,2.6-3,3.7-4.7C76.1,56.5,71.9,57.7,67.4,57.7z
			"/>
		
			<radialGradient id="SVGID_4_" cx="-337.4713" cy="392.0312" r="2.577667e-02" gradientTransform="matrix(-1871.0475 102.365 99.0206 1934.2411 -670153.5625 -723703.75)" gradientUnits="userSpaceOnUse">
			<stop  offset="0" style="stop-color:#FFFFFF"/>
			<stop  offset="0.1212" style="stop-color:#E9C457"/>
			<stop  offset="0.5939" style="stop-color:#FBA91D"/>
			<stop  offset="1" style="stop-color:#6E6812"/>
		</radialGradient>
		<path class="st3" d="M83.6,44.7c-10,10.4-26.2,10.4-36.2,0.1c-2.3-2.4-4.2-5.3-5.2-8.4c0.7,7.3,3,12.4,7.7,17.3
			c6.1,6.3,14.3,9,21.8,8C82,56.8,89.3,46.3,89.9,34C88.7,37.9,86.6,41.6,83.6,44.7z"/>
		
			<radialGradient id="SVGID_5_" cx="-336.3871" cy="390.1882" r="2.580166e-02" gradientTransform="matrix(-1247.3302 1309.9269 1267.1302 1289.4583 -913921.5625 -62475.6172)" gradientUnits="userSpaceOnUse">
			<stop  offset="0" style="stop-color:#F79B81"/>
			<stop  offset="0.6121" style="stop-color:#F8982F"/>
			<stop  offset="1" style="stop-color:#844C05"/>
		</radialGradient>
		<path class="st4" d="M83.6,13c1.2,3.1,1.9,6.4,1.9,10c0,14.6-11.4,26.5-25.5,26.5c-3.3,0-6.4-0.7-9.3-1.9
			c4.5,3.9,10.5,6.3,17.2,6.3c7.8,0,14.7-3.3,19.4-8.4c1.7-4,2.7-8.4,2.7-13.1C89.9,25.1,87.6,18.4,83.6,13z"/>
		
			<radialGradient id="SVGID_6_" cx="-337.1685" cy="387.9576" r="2.557372e-02" gradientTransform="matrix(69.2949 1872.7979 1811.6115 -71.6353 -679399.875 659240.5625)" gradientUnits="userSpaceOnUse">
			<stop  offset="0" style="stop-color:#FEE7D9"/>
			<stop  offset="0.5212" style="stop-color:#E3473F"/>
			<stop  offset="1" style="stop-color:#C36C16"/>
		</radialGradient>
		<path class="st5" d="M62.9,0.5c3.1,1.3,6,3.2,8.5,5.8c15,15.5,5.8,32.7,1.2,37.4c-2.3,2.4-5.1,4.1-8,5.3c5.9-0.6,10.8-3.1,15.5-8
			c5.4-5.6,8.1-12.8,7.9-19.7C84.2,10.3,74.5,2.1,62.9,0.5z"/>
		<ellipse class="st6" cx="58.9" cy="31.3" rx="18.1" ry="18.5"/>
	</g>
	<g>
		<linearGradient id="SVGID_7_" gradientUnits="userSpaceOnUse" x1="5.8875" y1="75.1265" x2="5.8875" y2="91.5169">
			<stop  offset="0" style="stop-color:#559842"/>
			<stop  offset="1" style="stop-color:#2A7439"/>
		</linearGradient>
		<path class="st7" d="M0.2,91.5v-2.3l2-1.9c3.5-3.2,5.2-5,5.2-6.9c0-1.3-0.8-2.4-2.6-2.4c-1.4,0-2.6,0.7-3.4,1.3l-1.1-2.7
			c1.2-0.9,3.1-1.7,5.2-1.7c3.6,0,5.6,2.1,5.6,5.1c0,2.7-1.9,4.9-4.3,6.9l-1.5,1.2v0h6v3.1H0.2z"/>
		<linearGradient id="SVGID_8_" gradientUnits="userSpaceOnUse" x1="19.6186" y1="75.3994" x2="19.6186" y2="91.5169">
			<stop  offset="0" style="stop-color:#559842"/>
			<stop  offset="1" style="stop-color:#2A7439"/>
		</linearGradient>
		<path class="st8" d="M20.4,91.5v-3.8h-7.1v-2.5l6-9.8H24v9.4h1.9v2.8H24v3.8H20.4z M20.4,84.8v-3.6c0-1,0-2,0.1-3h-0.1
			c-0.5,1-1,2-1.5,3l-2.1,3.5l0,0H20.4z"/>
		<linearGradient id="SVGID_9_" gradientUnits="userSpaceOnUse" x1="33.0921" y1="74.5562" x2="33.0921" y2="91.7646">
			<stop  offset="0" style="stop-color:#559842"/>
			<stop  offset="1" style="stop-color:#2A7439"/>
		</linearGradient>
		<path class="st9" d="M28.2,87.6c1,0.5,2.6,1,4.2,1c1.7,0,2.6-0.7,2.6-1.8c0-1-0.8-1.6-2.8-2.3c-2.8-1-4.6-2.5-4.6-5
			c0-2.9,2.4-5,6.3-5c1.9,0,3.2,0.4,4.2,0.8l-0.8,3c-0.6-0.3-1.8-0.8-3.4-0.8c-1.6,0-2.4,0.8-2.4,1.6c0,1.1,0.9,1.5,3.1,2.4
			c2.9,1.1,4.3,2.6,4.3,5c0,2.8-2.1,5.2-6.7,5.2c-1.9,0-3.8-0.5-4.7-1L28.2,87.6z"/>
		<linearGradient id="SVGID_10_" gradientUnits="userSpaceOnUse" x1="48.1621" y1="74.8039" x2="48.1621" y2="91.5169">
			<stop  offset="0" style="stop-color:#559842"/>
			<stop  offset="1" style="stop-color:#2A7439"/>
		</linearGradient>
		<path class="st10" d="M45.1,74.8v6.4h6.2v-6.4H55v16.7h-3.7v-7h-6.2v7h-3.7V74.8H45.1z"/>
		<linearGradient id="SVGID_11_" gradientUnits="userSpaceOnUse" x1="65.4429" y1="74.5315" x2="65.4429" y2="91.7897">
			<stop  offset="0" style="stop-color:#559842"/>
			<stop  offset="1" style="stop-color:#2A7439"/>
		</linearGradient>
		<path class="st11" d="M65.3,91.8c-4.9,0-7.8-3.7-7.8-8.5c0-5,3.2-8.8,8.1-8.8c5.1,0,7.9,3.8,7.9,8.5
			C73.4,88.5,70.1,91.8,65.3,91.8L65.3,91.8z M65.5,88.8c2.5,0,4-2.4,4-5.7c0-3-1.4-5.6-4-5.6s-4,2.5-4,5.7
			C61.4,86.3,62.9,88.8,65.5,88.8L65.5,88.8z"/>
		<linearGradient id="SVGID_12_" gradientUnits="userSpaceOnUse" x1="81.8018" y1="74.6803" x2="81.8018" y2="91.5169">
			<stop  offset="0" style="stop-color:#559842"/>
			<stop  offset="1" style="stop-color:#2A7439"/>
		</linearGradient>
		<path class="st12" d="M75.9,75c1.2-0.2,2.8-0.3,5.1-0.3c2.3,0,4,0.4,5.1,1.4c1.1,0.8,1.8,2.2,1.8,3.8c0,1.7-0.5,3-1.5,4
			c-1.3,1.2-3.2,1.8-5.4,1.8c-0.5,0-0.9,0-1.3-0.1v6h-3.7V75z M79.6,82.6c0.3,0.1,0.7,0.1,1.3,0.1c2,0,3.2-1,3.2-2.7
			c0-1.5-1.1-2.5-2.9-2.5c-0.7,0-1.3,0-1.5,0.1V82.6z"/>
		<linearGradient id="SVGID_13_" gradientUnits="userSpaceOnUse" x1="88.3963" y1="87.2022" x2="88.3963" y2="91.7897">
			<stop  offset="0" style="stop-color:#559842"/>
			<stop  offset="1" style="stop-color:#2A7439"/>
		</linearGradient>
		<path class="st13" d="M88.4,91.8c-1.3,0-2.2-1-2.2-2.3c0-1.4,0.9-2.3,2.2-2.3c1.3,0,2.2,0.9,2.2,2.3
			C90.6,90.8,89.7,91.8,88.4,91.8L88.4,91.8z"/>
		<linearGradient id="SVGID_14_" gradientUnits="userSpaceOnUse" x1="99.1194" y1="74.6803" x2="99.1194" y2="91.6903">
			<stop  offset="0" style="stop-color:#559842"/>
			<stop  offset="1" style="stop-color:#2A7439"/>
		</linearGradient>
		<path class="st14" d="M93,75.1c1-0.2,2.9-0.4,4.8-0.4c2.3,0,3.7,0.2,4.9,0.9c1.2,0.6,2,1.8,2,3.3c0,1.5-0.9,2.8-2.7,3.5v0
			c1.9,0.5,3.3,2,3.3,4.1c0,1.5-0.7,2.7-1.7,3.5c-1.2,1-3.2,1.5-6.5,1.5c-1.8,0-3.2-0.1-4.1-0.2V75.1z M96.7,81.4h1.2
			c2,0,3-0.8,3-2.1c0-1.3-1-1.9-2.7-1.9c-0.8,0-1.3,0-1.6,0.1V81.4z M96.7,88.8c0.4,0.1,0.8,0.1,1.4,0.1c1.7,0,3.2-0.7,3.2-2.4
			c0-1.7-1.5-2.4-3.4-2.4h-1.3V88.8z"/>
		<linearGradient id="SVGID_15_" gradientUnits="userSpaceOnUse" x1="112.7887" y1="74.8039" x2="112.7887" y2="91.5169">
			<stop  offset="0" style="stop-color:#559842"/>
			<stop  offset="1" style="stop-color:#2A7439"/>
		</linearGradient>
		<path class="st15" d="M110.8,91.5v-6.8l-5.2-9.9h4.3l1.7,4c0.5,1.2,0.9,2.1,1.3,3.2h0c0.4-1,0.8-2,1.3-3.2l1.7-4h4.2l-5.5,9.7v7
			H110.8z"/>
	</g>
	<g>
		<path class="st16" d="M0.9,97.9v3.1c0,1.2,0,2.2-0.1,3.2l0,0c0.4-0.8,0.8-1.6,1.4-2.5l2.4-3.8h1v7.4H4.7v-3.2c0-1.2,0-2.1,0.1-3
			l0,0c-0.4,0.8-0.9,1.7-1.4,2.5L1,105.4H0v-7.4H0.9z"/>
		<path class="st16" d="M9.8,97.9v3.1h3.6v-3.1h1v7.4h-1v-3.5H9.8v3.5h-1v-7.4H9.8z"/>
		<path class="st16" d="M19,98.7h-2.3v-0.8h5.5v0.8H20v6.6h-1V98.7z"/>
		<path class="st16" d="M28.5,101.9h-2.9v2.7h3.2v0.8h-4.2v-7.4h4v0.8h-3.1v2.4h2.9V101.9z"/>
		<path class="st16" d="M31.6,98c0.5-0.1,1.1-0.2,1.8-0.2c1,0,1.6,0.2,2.1,0.6c0.4,0.4,0.7,0.9,0.7,1.5c0,0.7-0.2,1.2-0.6,1.6
			c-0.5,0.5-1.3,0.8-2.3,0.8c-0.3,0-0.6,0-0.8-0.1v3h-1V98z M32.6,101.6c0.2,0.1,0.5,0.1,0.8,0.1c1.2,0,1.9-0.6,1.9-1.6
			c0-1-0.7-1.5-1.8-1.5c-0.4,0-0.7,0-0.9,0.1V101.6z"/>
		<path class="st16" d="M40,97.9v3.1h3.6v-3.1h1v7.4h-1v-3.5H40v3.5h-1v-7.4H40z"/>
		<path class="st16" d="M51.7,101.9h-2.9v2.7H52v0.8h-4.2v-7.4h4v0.8h-3.1v2.4h2.9V101.9z"/>
		<path class="st16" d="M56.3,98.7H54v-0.8h5.5v0.8h-2.3v6.6h-1V98.7z"/>
		<path class="st16" d="M63.4,102v0.7h-2.7V102H63.4z"/>
		<path class="st16" d="M72.4,102.1c-0.1-1-0.1-2.3-0.1-3.2h0c-0.3,0.9-0.6,1.8-0.9,2.8l-1.3,3.6h-0.7l-1.2-3.5
			c-0.4-1-0.6-2-0.9-2.9h0c0,0.9-0.1,2.2-0.1,3.3l-0.2,3.2h-0.9l0.5-7.4h1.2l1.3,3.6c0.3,0.9,0.6,1.7,0.8,2.5h0
			c0.2-0.8,0.5-1.6,0.8-2.5l1.3-3.6H73l0.5,7.4h-1L72.4,102.1z"/>
		<path class="st16" d="M77.6,103l-0.8,2.3h-1l2.5-7.4h1.2l2.5,7.4h-1l-0.8-2.3H77.6z M80.1,102.3l-0.7-2.1
			c-0.2-0.5-0.3-0.9-0.4-1.4h0c-0.1,0.4-0.2,0.9-0.4,1.3l-0.7,2.2H80.1z"/>
		<path class="st16" d="M88.7,97.9v0.8h-3v6.6h-1v-7.4H88.7z"/>
		<path class="st16" d="M91.4,103l-0.8,2.3h-1l2.5-7.4h1.2l2.5,7.4h-1l-0.8-2.3H91.4z M93.9,102.3l-0.7-2.1
			c-0.2-0.5-0.3-0.9-0.4-1.4h0c-0.1,0.4-0.2,0.9-0.4,1.3l-0.7,2.2H93.9z"/>
		<path class="st16" d="M98.3,98.4c0.5-0.3,1.2-0.6,2-0.6c1.3,0,2.2,0.7,2.2,1.8c0,0.9-0.7,1.6-1.5,1.8v0c1,0.1,1.8,0.8,1.8,1.9
			c0,1.5-1.4,2.2-2.7,2.2c-0.7,0-1.4-0.1-1.9-0.5l0.3-0.8c0.4,0.2,1.1,0.5,1.7,0.5c1.1,0,1.7-0.6,1.7-1.4c0-1.1-1.1-1.4-2-1.4h-0.4
			v-0.7h0.4c1,0,1.8-0.6,1.8-1.4c0-0.8-0.5-1.2-1.3-1.2c-0.6,0-1.1,0.2-1.5,0.5L98.3,98.4z"/>
		<path class="st16" d="M106.5,97.9v3.1c0,1.2,0,2.2-0.1,3.2l0,0c0.4-0.8,0.8-1.6,1.4-2.5l2.4-3.8h1v7.4h-0.9v-3.2
			c0-1.2,0-2.1,0.1-3l0,0c-0.4,0.8-0.9,1.7-1.4,2.5l-2.3,3.7h-1v-7.4H106.5z"/>
		<path class="st16" d="M115.4,97.9v3.1h3.6v-3.1h1v7.4h-1v-3.5h-3.6v3.5h-1v-7.4H115.4z"/>
	</g>
</g>
</svg>
